<?xml version="1.0" encoding="utf-8"?>
<!-- Generator: Adobe Illustrator 25.2.0, SVG Export Plug-In . SVG Version: 6.00 Build 0)  -->
<svg version="1.1" id="Calque_1" xmlns="http://www.w3.org/2000/svg" xmlns:xlink="http://www.w3.org/1999/xlink" x="0px" y="0px"
	 viewBox="0 0 533.7 116.5" style="enable-background:new 0 0 533.7 116.5;" xml:space="preserve">
<style type="text/css">
	.st0{fill:url(#SVGID_1_);}
	.st1{fill:#FFFFFF;}
</style>
<linearGradient id="SVGID_1_" gradientUnits="userSpaceOnUse" x1="278.2699" y1="-1098.6808" x2="365.6608" y2="-1048.2186" gradientTransform="matrix(1 0 0 -1 -300 -1025)">
	<stop  offset="0" style="stop-color:#F80F44"/>
	<stop  offset="8.000000e-02" style="stop-color:#F50F46"/>
	<stop  offset="0.14" style="stop-color:#EA114A"/>
	<stop  offset="0.21" style="stop-color:#D81352"/>
	<stop  offset="0.27" style="stop-color:#BF165D"/>
	<stop  offset="0.33" style="stop-color:#9F196C"/>
	<stop  offset="0.39" style="stop-color:#771E7E"/>
	<stop  offset="0.44" style="stop-color:#482492"/>
	<stop  offset="0.5" style="stop-color:#132AAA"/>
	<stop  offset="0.5" style="stop-color:#112AAB"/>
	<stop  offset="1" style="stop-color:#0FD3BD"/>
</linearGradient>
<path class="st0" d="M17,33.2l41.6,26.1L17,85.4V33.2 M3.2,5C1.4,5,0,6.4,0,8.2l0,0v102.1c-0.1,1.8,1.3,3.2,3.1,3.3h0.1
	c0.6,0,1.2-0.2,1.7-0.5l78.1-49c2.7-1.7,3.4-5.2,1.7-7.9c-0.4-0.7-1-1.3-1.7-1.7L4.9,5.5C4.4,5.2,3.8,5,3.2,5z"/>
<path class="st1" d="M187.2,14.6c-0.1-2.3,0.8-4.6,2.4-6.2c3.7-3.2,9.3-3.2,13,0c3.2,3.5,3.2,9,0,12.5c-1.8,1.6-4.1,2.5-6.5,2.4
	c-2.4,0.1-4.7-0.8-6.4-2.4C188,19.3,187.1,17,187.2,14.6z M205.1,91.8h-16.9V35.9l16.9-7V91.8z"/>
<path class="st1" d="M216.3,59.9c0-9.7,2.3-17.5,6.9-23.4c4.5-5.8,10.7-8.8,18.5-8.8s12.3,2.4,16.1,7.1l0.7-5.9h15.2v60.8
	c0.1,5-1.1,10-3.7,14.3c-2.5,4.1-6.2,7.4-10.6,9.3c-5,2.2-10.4,3.3-15.9,3.2c-4.6,0-9.2-0.9-13.5-2.8c-3.9-1.5-7.3-3.9-9.9-7.1
	l7.4-10.2c3.8,4.5,9.4,7.1,15.3,7c4.4,0,7.9-1.2,10.4-3.5s3.7-5.8,3.7-10.2v-3.4c-3.9,4.4-9.5,6.8-15.3,6.6
	c-7.2,0.2-14-3.1-18.3-8.8c-4.7-6-7-13.8-7-23.6L216.3,59.9z M233.1,61.1c0,5.7,1.1,10.2,3.4,13.4c2.1,3.2,5.6,5,9.4,4.9
	c5.1,0,8.8-1.9,11-5.8V47.1c-2.3-3.8-5.9-5.7-10.9-5.7c-3.8-0.1-7.4,1.7-9.5,4.9C234.2,49.6,233.1,54.5,233.1,61.1L233.1,61.1z"/>
<path class="st1" d="M286.3,14.6c-0.1-2.3,0.8-4.6,2.4-6.2c3.7-3.2,9.2-3.2,12.9,0c3.2,3.5,3.2,9,0,12.5c-1.7,1.6-4,2.5-6.4,2.4
	c-2.4,0.1-4.7-0.8-6.4-2.4C287.1,19.3,286.2,17,286.3,14.6z M303.2,91.8h-16.9V35.9l16.9-7V91.8z"/>
<path class="st1" d="M335.9,13.4v15.5h10.8v12.3h-10.8v31.4c-0.1,1.8,0.3,3.5,1.3,5c0.9,1,2.6,1.5,5.2,1.5c1.6,0,3.3-0.2,4.9-0.4
	v12.7c-3.3,1-6.7,1.5-10.2,1.5c-11.7,0-17.7-5.9-18-17.8V41.2h-9.2V28.9h9.2v-8.5L335.9,13.4z"/>
<path class="st1" d="M383.8,92.9c-9.3,0-16.8-2.8-22.6-8.5s-8.6-13.2-8.6-22.6v-1.6c-0.1-5.8,1.1-11.6,3.6-16.9
	c2.2-4.8,5.9-8.8,10.4-11.5c4.6-2.8,9.9-4.2,15.3-4.1c8.6,0,15.4,2.7,20.3,8.2s7.4,13.1,7.4,23v6.9h-40c0.4,3.8,2.1,7.3,4.9,9.9
	c2.9,2.5,6.6,3.8,10.4,3.7c6.4,0,11.5-2.4,15.1-7.1l8.3,9.3c-2.6,3.6-6.1,6.5-10.2,8.3C393.6,91.9,388.7,93,383.8,92.9z M381.8,41.3
	c-3-0.1-6,1.1-8.1,3.3c-2.3,2.8-3.6,6.1-3.9,9.7h23.3V53c-0.1-3.7-1.1-6.6-3-8.7C388.2,42.3,385.4,41.3,381.8,41.3L381.8,41.3z"/>
<path class="st1" d="M440.8,66.5l-6,6.1v19.2H418V9l16.8-6.5v49.4l3.2-4.1l16.1-18.9h20.2l-22.8,26.2l24.7,36.7h-19.3L440.8,66.5z"
	/>
<path class="st1" d="M516.8,91.8c-0.9-1.8-1.5-3.7-1.7-5.7c-4,4.5-9.9,7-15.9,6.8c-5.6,0.2-11-1.7-15.3-5.3
	c-3.9-3.4-6.2-8.3-6.1-13.5c0-6.7,2.5-11.8,7.4-15.4s12.1-5.3,21.5-5.4h7.7v-3.6c0.1-2.5-0.7-5-2.3-6.9c-1.4-1.8-3.8-2.6-7-2.6
	s-5.1,0.6-6.7,2s-2.5,3.5-2.4,5.6h-16.8c0-3.6,1.2-7.2,3.4-10.1c2.4-3.3,5.7-5.8,9.5-7.3c4.4-1.9,9.1-2.8,13.9-2.7
	c7.7,0,13.9,2,18.4,5.9s6.8,9.3,6.8,16.4v27.2c0.1,6,0.9,10.5,2.5,13.6v1C533.7,91.8,516.8,91.8,516.8,91.8z M502.9,80.1
	c2.4,0,4.7-0.6,6.8-1.7c2-1,3.6-2.5,4.7-4.4V63.2h-6.3c-8.4,0-12.9,2.9-13.4,8.7v1c0,1.9,0.8,3.8,2.2,5.1
	C498.6,79.4,500.7,80.2,502.9,80.1L502.9,80.1z"/>
<path class="st1" d="M176,91.3h-16.7l-0.9-9.2h-0.2c-3.9,7.1-11.2,10.7-19,10.7c-14.4,0-25.9-12.7-25.9-32.2
	c-0.1-21.1,12.6-33.3,27.1-33.3c7.5,0,13.3,2.7,16,7.1l0.8,1.1V8.4L176,0 M156.7,55.2c0-1-0.2-2.4-0.3-3.4c-1.1-5.3-5.2-9.6-11-9.6
	c-8.6,0-13,7.9-13,17.8s5.1,17.3,12.9,17.3c5.4,0,9.8-3.9,10.9-9.4c0.3-1.5,0.5-3,0.5-4.5L156.7,55.2L156.7,55.2z"/>
</svg>
